<?xml version="1.0" encoding="UTF-8"?>
<!--Generator: Apple Native CoreSVG 326-->
<!DOCTYPE svg
PUBLIC "-//W3C//DTD SVG 1.1//EN"
       "http://www.w3.org/Graphics/SVG/1.1/DTD/svg11.dtd">
<svg version="1.1" xmlns="http://www.w3.org/2000/svg" xmlns:xlink="http://www.w3.org/1999/xlink" viewBox="0 0 15.0327 19.8638">
 <g>
  <rect height="19.8638" opacity="0" width="15.0327" x="0" y="0"/>
  <path d="M0 10.542C0 14.5928 3.27881 17.8716 7.32959 17.8716C11.3804 17.8716 14.6592 14.5928 14.6592 10.542C14.6592 10.1353 14.377 9.84473 13.9702 9.84473C13.5801 9.84473 13.3228 10.1353 13.3228 10.5337C13.3228 13.8457 10.6416 16.5269 7.32959 16.5269C4.01758 16.5269 1.33643 13.8457 1.33643 10.5337C1.33643 7.22168 4.01758 4.54053 7.32959 4.54053C7.96875 4.54053 8.5498 4.58203 9.03955 4.69824L6.56592 7.15527C6.4248 7.27979 6.375 7.4541 6.375 7.62842C6.375 8.01025 6.65723 8.29248 7.02246 8.29248C7.22998 8.29248 7.37939 8.21777 7.50391 8.10156L10.9238 4.66504C11.0732 4.52393 11.1396 4.35791 11.1396 4.16699C11.1396 3.98438 11.0649 3.80176 10.9238 3.66895L7.51221 0.199219C7.3877 0.0664062 7.22998 0 7.02246 0C6.65723 0 6.375 0.298828 6.375 0.680664C6.375 0.85498 6.43311 1.021 6.55762 1.15381L8.75732 3.35352C8.33398 3.27051 7.83594 3.2124 7.32959 3.2124C3.27881 3.2124 0 6.49121 0 10.542Z" fill="black" fill-opacity="0.85"/>
 </g>
</svg>
