<?xml version="1.0" encoding="UTF-8"?>
<!--Generator: Apple Native CoreSVG 326-->
<!DOCTYPE svg
PUBLIC "-//W3C//DTD SVG 1.1//EN"
       "http://www.w3.org/Graphics/SVG/1.1/DTD/svg11.dtd">
<svg version="1.1" xmlns="http://www.w3.org/2000/svg" xmlns:xlink="http://www.w3.org/1999/xlink" viewBox="0 0 14.6758 14.6509">
 <g>
  <rect height="14.6509" opacity="0" width="14.6758" x="0" y="0"/>
  <path d="M5.41211 14.6509C5.76904 14.6509 6.05127 14.4932 6.25049 14.186L14.0947 1.83447C14.2441 1.59375 14.3022 1.41113 14.3022 1.22021C14.3022 0.763672 14.0034 0.464844 13.5469 0.464844C13.2148 0.464844 13.0322 0.572754 12.833 0.888184L5.37891 12.7666L1.51074 7.70312C1.30322 7.4126 1.0957 7.29639 0.796875 7.29639C0.32373 7.29639 0 7.62012 0 8.07666C0 8.26758 0.0830078 8.4834 0.240723 8.68262L4.54883 14.1694C4.79785 14.4932 5.05518 14.6509 5.41211 14.6509Z" fill="black" fill-opacity="0.85"/>
 </g>
</svg>
