<?xml version="1.0" encoding="UTF-8"?>
<!--Generator: Apple Native CoreSVG 326-->
<!DOCTYPE svg
PUBLIC "-//W3C//DTD SVG 1.1//EN"
       "http://www.w3.org/Graphics/SVG/1.1/DTD/svg11.dtd">
<svg version="1.1" xmlns="http://www.w3.org/2000/svg" xmlns:xlink="http://www.w3.org/1999/xlink" viewBox="0 0 17.3071 16.9419">
 <g>
  <rect height="16.9419" opacity="0" width="17.3071" x="0" y="0"/>
  <path d="M16.9336 8.4668C16.9336 13.1318 13.1401 16.9336 8.4668 16.9336C3.80176 16.9336 0 13.1318 0 8.4668C0 3.79346 3.80176 0 8.4668 0C13.1401 0 16.9336 3.79346 16.9336 8.4668ZM11.0483 5.17139L7.50391 10.8657L5.81885 8.69092C5.61133 8.41699 5.42871 8.34229 5.18799 8.34229C4.81445 8.34229 4.52393 8.64941 4.52393 9.02295C4.52393 9.21387 4.59863 9.39648 4.72314 9.5625L6.80664 12.1191C7.02246 12.4097 7.25488 12.5259 7.53711 12.5259C7.81934 12.5259 8.06006 12.3931 8.23438 12.1191L12.1357 5.97656C12.2354 5.80225 12.3433 5.61133 12.3433 5.42871C12.3433 5.03857 12.0029 4.78955 11.6377 4.78955C11.4219 4.78955 11.2061 4.92236 11.0483 5.17139Z" fill="white" fill-opacity="0.85"/>
 </g>
</svg>
