<?xml version="1.0" encoding="UTF-8"?>
<!--Generator: Apple Native CoreSVG 326-->
<!DOCTYPE svg
PUBLIC "-//W3C//DTD SVG 1.1//EN"
       "http://www.w3.org/Graphics/SVG/1.1/DTD/svg11.dtd">
<svg version="1.1" xmlns="http://www.w3.org/2000/svg" xmlns:xlink="http://www.w3.org/1999/xlink" viewBox="0 0 14.7886 13.9108">
 <g>
  <rect height="13.9108" opacity="0" width="14.7886" x="0" y="0"/>
  <path d="M7.18151 13.8369C7.33756 13.8369 7.47386 13.7668 7.58982 13.6591L14.2129 7.37068C14.3423 7.24127 14.4151 7.09153 14.4151 6.9226C14.4151 6.74796 14.3398 6.58675 14.2104 6.47453L7.58725 0.17523C7.47129 0.0675685 7.33756 0 7.18151 0C6.85537 0 6.60311 0.252261 6.60311 0.5784C6.60311 0.726154 6.66868 0.879055 6.77062 0.986716L13.3931 7.28278L13.3931 6.55156L6.77062 12.8585C6.66868 12.9636 6.60311 13.1108 6.60311 13.2668C6.60311 13.5904 6.85537 13.8369 7.18151 13.8369Z" fill="black" fill-opacity="0.85"/>
  <path d="M0.647877 1.84062C1.00689 1.84062 1.29575 1.55175 1.29575 1.19274C1.29575 0.83373 1.00689 0.544862 0.647877 0.544862C0.288868 0.544862 0 0.83373 0 1.19274C0 1.55175 0.288868 1.84062 0.647877 1.84062ZM2.07569 3.28246C2.44043 3.28246 2.72357 2.99359 2.72357 2.63459C2.72357 2.27558 2.44043 1.98671 2.07569 1.98671C1.71669 1.98671 1.42782 2.27558 1.42782 2.63459C1.42782 2.99359 1.71669 3.28246 2.07569 3.28246ZM3.50924 4.72115C3.86825 4.72115 4.15712 4.43544 4.15712 4.0707C4.15712 3.71427 3.86825 3.42283 3.50924 3.42283C3.15023 3.42283 2.86136 3.71427 2.86136 4.0707C2.86136 4.43544 3.15023 4.72115 3.50924 4.72115ZM4.93706 6.163C5.29607 6.163 5.58494 5.87413 5.58494 5.51512C5.58494 5.15611 5.29607 4.86467 4.93706 4.86467C4.57805 4.86467 4.28918 5.15611 4.28918 5.51512C4.28918 5.87413 4.57805 6.163 4.93706 6.163ZM6.3706 7.60485C6.72961 7.60485 7.01848 7.31598 7.01848 6.95697C7.01848 6.59796 6.72961 6.30909 6.3706 6.30909C6.01159 6.30909 5.72015 6.59796 5.72015 6.95697C5.72015 7.31598 6.01159 7.60485 6.3706 7.60485ZM4.93706 9.04669C5.29607 9.04669 5.58494 8.75783 5.58494 8.39882C5.58494 8.03408 5.29607 7.75094 4.93706 7.75094C4.57805 7.75094 4.28918 8.03408 4.28918 8.39882C4.28918 8.75783 4.57805 9.04669 4.93706 9.04669ZM3.50924 10.4828C3.86825 10.4828 4.15712 10.1939 4.15712 9.83494C4.15712 9.47593 3.86825 9.18706 3.50924 9.18706C3.15023 9.18706 2.86136 9.47593 2.86136 9.83494C2.86136 10.1939 3.15023 10.4828 3.50924 10.4828ZM2.07569 11.9247C2.44043 11.9247 2.72357 11.6358 2.72357 11.2768C2.72357 10.9178 2.44043 10.6289 2.07569 10.6289C1.71669 10.6289 1.42782 10.9178 1.42782 11.2768C1.42782 11.6358 1.71669 11.9247 2.07569 11.9247ZM0.647877 13.3691C1.00689 13.3691 1.29575 13.0776 1.29575 12.7186C1.29575 12.3596 1.00689 12.0708 0.647877 12.0708C0.288868 12.0708 0 12.3596 0 12.7186C0 13.0776 0.288868 13.3691 0.647877 13.3691Z" fill="black" fill-opacity="0.85"/>
 </g>
</svg>
