<?xml version="1.0" encoding="UTF-8"?>
<!--Generator: Apple Native CoreSVG 326-->
<!DOCTYPE svg
PUBLIC "-//W3C//DTD SVG 1.1//EN"
       "http://www.w3.org/Graphics/SVG/1.1/DTD/svg11.dtd">
<svg version="1.1" xmlns="http://www.w3.org/2000/svg" xmlns:xlink="http://www.w3.org/1999/xlink" viewBox="0 0 11.4219 15.9956">
 <g>
  <rect height="15.9956" opacity="0" width="11.4219" x="0" y="0"/>
  <path d="M5.52832 0C5.3125 0 5.12158 0.0830078 4.95557 0.249023L0.21582 4.79785C0.0913086 4.92236 0 5.09668 0 5.3374C0 5.76904 0.32373 6.10107 0.755371 6.10107C0.937988 6.10107 1.13721 6.05127 1.31152 5.87695L5.52832 1.75146L9.73682 5.87695C9.91943 6.04297 10.1104 6.10107 10.293 6.10107C10.7246 6.10107 11.0483 5.76904 11.0483 5.3374C11.0483 5.09668 10.9653 4.92236 10.8325 4.79785L6.09277 0.249023C5.92676 0.0830078 5.73584 0 5.52832 0ZM5.52832 15.9873C5.73584 15.9873 5.92676 15.896 6.09277 15.7383L10.8325 11.1895C10.9653 11.0566 11.0483 10.8906 11.0483 10.6416C11.0483 10.21 10.7246 9.88623 10.293 9.88623C10.1104 9.88623 9.91943 9.94434 9.73682 10.1104L5.52832 14.2358L1.31152 10.1104C1.13721 9.93604 0.937988 9.88623 0.755371 9.88623C0.32373 9.88623 0 10.21 0 10.6416C0 10.8906 0.0913086 11.0566 0.21582 11.1895L4.95557 15.7383C5.12158 15.896 5.3125 15.9873 5.52832 15.9873Z" fill="black" fill-opacity="0.85"/>
 </g>
</svg>
