<?xml version="1.0" encoding="UTF-8"?>
<!--Generator: Apple Native CoreSVG 326-->
<!DOCTYPE svg
PUBLIC "-//W3C//DTD SVG 1.1//EN"
       "http://www.w3.org/Graphics/SVG/1.1/DTD/svg11.dtd">
<svg version="1.1" xmlns="http://www.w3.org/2000/svg" xmlns:xlink="http://www.w3.org/1999/xlink" viewBox="0 0 17.772 15.8628">
 <g>
  <rect height="15.8628" opacity="0" width="17.772" x="0" y="0"/>
  <path d="M2.26611 15.7715L15.1323 15.7715C16.5435 15.7715 17.3984 14.792 17.3984 13.522C17.3984 13.1318 17.2822 12.7251 17.0747 12.3599L10.6333 1.13721C10.2017 0.381836 9.46289 0 8.69922 0C7.93555 0 7.18848 0.381836 6.76514 1.13721L0.32373 12.3599C0.0996094 12.7334 0 13.1318 0 13.522C0 14.792 0.85498 15.7715 2.26611 15.7715ZM2.27441 14.4683C1.69336 14.4683 1.34473 14.02 1.34473 13.5137C1.34473 13.356 1.37793 13.1567 1.46924 12.9824L7.90234 1.76807C8.07666 1.46094 8.39209 1.32812 8.69922 1.32812C9.00635 1.32812 9.31348 1.46094 9.48779 1.76807L15.9209 12.9907C16.0122 13.165 16.0537 13.356 16.0537 13.5137C16.0537 14.02 15.6885 14.4683 15.1157 14.4683Z" fill="black" fill-opacity="0.85"/>
  <path d="M8.69922 10.1768C9.09766 10.1768 9.33008 9.94434 9.33838 9.5127L9.45459 5.13818C9.46289 4.71484 9.13086 4.39941 8.69092 4.39941C8.24268 4.39941 7.92725 4.70654 7.93555 5.12988L8.04346 9.5127C8.05176 9.93604 8.28418 10.1768 8.69922 10.1768ZM8.69922 12.8745C9.18066 12.8745 9.5957 12.4927 9.5957 12.0112C9.5957 11.5215 9.18896 11.1479 8.69922 11.1479C8.20947 11.1479 7.80273 11.5298 7.80273 12.0112C7.80273 12.4844 8.21777 12.8745 8.69922 12.8745Z" fill="black" fill-opacity="0.85"/>
 </g>
</svg>
