<?xml version="1.0" encoding="UTF-8"?>
<!--Generator: Apple Native CoreSVG 326-->
<!DOCTYPE svg
PUBLIC "-//W3C//DTD SVG 1.1//EN"
       "http://www.w3.org/Graphics/SVG/1.1/DTD/svg11.dtd">
<svg version="1.1" xmlns="http://www.w3.org/2000/svg" xmlns:xlink="http://www.w3.org/1999/xlink" viewBox="0 0 17.3071 16.9419">
 <g>
  <rect height="16.9419" opacity="0" width="17.3071" x="0" y="0"/>
  <path d="M8.4668 16.9336C13.1401 16.9336 16.9336 13.1401 16.9336 8.4668C16.9336 3.79346 13.1401 0 8.4668 0C3.79346 0 0 3.79346 0 8.4668C0 13.1401 3.79346 16.9336 8.4668 16.9336ZM8.4668 15.5225C4.56543 15.5225 1.41113 12.3682 1.41113 8.4668C1.41113 4.56543 4.56543 1.41113 8.4668 1.41113C12.3682 1.41113 15.5225 4.56543 15.5225 8.4668C15.5225 12.3682 12.3682 15.5225 8.4668 15.5225Z" fill="black" fill-opacity="0.85"/>
  <path d="M5.99316 12.2686C6.25879 12.2686 6.3999 12.1772 6.61572 11.8867L8.40869 9.33008L8.44189 9.33008L10.2349 11.8867C10.4424 12.1772 10.5918 12.2686 10.8491 12.2686C11.2227 12.2686 11.5049 12.0195 11.5049 11.6626C11.5049 11.4966 11.4551 11.3721 11.3472 11.231L9.26367 8.38379L11.3638 5.52832C11.48 5.37891 11.5215 5.24609 11.5215 5.08838C11.5215 4.76465 11.2476 4.50732 10.8989 4.50732C10.6416 4.50732 10.4756 4.60693 10.293 4.88086L8.55811 7.4375L8.5166 7.4375L6.74854 4.87256C6.55762 4.60693 6.3999 4.50732 6.11768 4.50732C5.76074 4.50732 5.47021 4.78955 5.47021 5.12158C5.47021 5.3042 5.51172 5.42041 5.64453 5.60303L7.63672 8.34229L5.52002 11.2642C5.42041 11.4136 5.37891 11.5298 5.37891 11.6958C5.37891 12.0195 5.64453 12.2686 5.99316 12.2686Z" fill="black" fill-opacity="0.85"/>
 </g>
</svg>
