<?xml version="1.0" encoding="UTF-8"?>
<!--Generator: Apple Native CoreSVG 326-->
<!DOCTYPE svg
PUBLIC "-//W3C//DTD SVG 1.1//EN"
       "http://www.w3.org/Graphics/SVG/1.1/DTD/svg11.dtd">
<svg version="1.1" xmlns="http://www.w3.org/2000/svg" xmlns:xlink="http://www.w3.org/1999/xlink" viewBox="0 0 13.5365 13.1713">
 <g>
  <rect height="13.1713" opacity="0" width="13.5365" x="0" y="0"/>
  <path d="M0.214794 12.9565C0.505321 13.2387 0.986767 13.2387 1.26899 12.9565L6.58149 7.64399L11.894 12.9565C12.1762 13.2387 12.666 13.247 12.9482 12.9565C13.2304 12.666 13.2304 12.1928 12.9482 11.9106L7.63569 6.58979L12.9482 1.27729C13.2304 0.995067 13.2387 0.513622 12.9482 0.231396C12.6577-0.0591318 12.1762-0.0591318 11.894 0.231396L6.58149 5.5439L1.26899 0.231396C0.986767-0.0591318 0.497021-0.0674326 0.214794 0.231396C-0.0674326 0.521923-0.0674326 0.995067 0.214794 1.27729L5.52729 6.58979L0.214794 11.9106C-0.0674326 12.1928-0.0757334 12.6743 0.214794 12.9565Z" fill="white" fill-opacity="0.85"/>
 </g>
</svg>
